# xmcd CD database file
#
# Track frame offsets:
#	150
#	19032
#	32147
#	41095
#	53946
#	76765
#	89320
#	97428
#	109330
#	127923
#	136576
#	153059
#	166019
#	175679
#	190974
#	204495
#	218688
#	230203
#
# Disc length: 3245 seconds
#
# Revision: 4
# Processed by: cddbd v1.5.1PL2 Copyright (c) Steve Scherf et al.
# Submitted via: CDex 1.51
#
DISCID=e90cab12
DTITLE=Various Artist -  Pure Contry CD1
DYEAR=1900
DGENRE=Country
TTITLE0=Rocky Mountain High
TTITLE1=Jamestown Ferry
TTITLE2=Chug-A-Lug
TTITLE3=Talkin' In Your Sleep
TTITLE4=King Of The Cowboys
TTITLE5=57 Chevrolet
TTITLE6=Have You Ever Been Lonely, Have You Ever Been Blue?
TTITLE7=Dear John Letter
TTITLE8=Winter In America
TTITLE9=Born A Woman
TTITLE10=Ring On Her Finger, Time On Her Hands
TTITLE11=Most Beautiful Girl In The World
TTITLE12=Mama Tried
TTITLE13=Kids Of The Baby Boom
TTITLE14=Golden Rings
TTITLE15=Mule Train
TTITLE16=A Poor Man's Roses Or A Rich Man's Gold
TTITLE17=Danny Boy
EXTD=
EXTT0=
EXTT1=
EXTT2=
EXTT3=
EXTT4=
EXTT5=
EXTT6=
EXTT7=
EXTT8=
EXTT9=
EXTT10=
EXTT11=
EXTT12=
EXTT13=
EXTT14=
EXTT15=
EXTT16=
EXTT17=
PLAYORDER=
